<svg xmlns="http://www.w3.org/2000/svg" xmlns:serif="http://www.serif.com/" xmlns:xlink="http://www.w3.org/1999/xlink" style="fill-rule: evenodd; clip-rule: evenodd; stroke-linejoin: round; stroke-miterlimit: 2; width: 200px; height: 200px; transform-origin: 50% 50%; transform: scaleX(1) scaleY(1) rotate(0deg);" version="1.1" viewBox="0 0 24 24" xml:space="preserve" preserveAspectRatio="xMidYMid meet"><g id="Icon" fill="#FFFFFF" style="fill:#FFFFFF;stroke:none" stroke="none"><path d="M4,6.75l16,0c0.414,0 0.75,-0.336 0.75,-0.75c0,-0.414 -0.336,-0.75 -0.75,-0.75l-16,0c-0.414,0 -0.75,0.336 -0.75,0.75c0,0.414 0.336,0.75 0.75,0.75Z" fill="#FFFFFF" style="fill:#FFFFFF;stroke:none" stroke="none"/><path d="M4,12.75l16,0c0.414,0 0.75,-0.336 0.75,-0.75c0,-0.414 -0.336,-0.75 -0.75,-0.75l-16,0c-0.414,0 -0.75,0.336 -0.75,0.75c0,0.414 0.336,0.75 0.75,0.75Z" fill="#FFFFFF" style="fill:#FFFFFF;stroke:none" stroke="none"/><path d="M4,18.75l16,0c0.414,0 0.75,-0.336 0.75,-0.75c0,-0.414 -0.336,-0.75 -0.75,-0.75l-16,0c-0.414,0 -0.75,0.336 -0.75,0.75c0,0.414 0.336,0.75 0.75,0.75Z" fill="#FFFFFF" style="fill:#FFFFFF;stroke:none" stroke="none"/></g></svg>