<svg xmlns="http://www.w3.org/2000/svg" viewBox="0 0 24 24" preserveAspectRatio="xMidYMid meet" style="width: 200px; height: 200px; transform-origin: 50% 50%; transform: scaleX(1) scaleY(1) rotate(0deg);"><defs><style>.cls-1{fill:#231f20;}.cls-2{fill:none;opacity:0;}</style></defs><title>message-circle</title><g id="Layer_2" data-name="Layer 2" style="fill:#FFFFFF"><g id="message-circle" style="fill:#FFFFFF"><g id="message-circle-2" data-name="message-circle" style="fill:#FFFFFF"><circle class="cls-1" cx="12" cy="12" r="1" style="fill:#FFFFFF"/><circle class="cls-1" cx="16" cy="12" r="1" style="fill:#FFFFFF"/><circle class="cls-1" cx="8" cy="12" r="1" style="fill:#FFFFFF"/><path class="cls-1" d="M19.07,4.93a10,10,0,0,0-16.28,11,1.06,1.06,0,0,1,.09.64L2,20.8a1,1,0,0,0,.27.91A1,1,0,0,0,3,22l.2,0,4.28-.86a1.26,1.26,0,0,1,.64.09,10,10,0,0,0,11-16.28Zm.83,8.36a8,8,0,0,1-11,6.08,3.26,3.26,0,0,0-1.25-.26,3.43,3.43,0,0,0-.56.05l-2.82.57.57-2.82a3.09,3.09,0,0,0-.21-1.81,8,8,0,0,1,6.08-11h0a8,8,0,0,1,9.19,9.19Z" style="fill:#FFFFFF"/><rect class="cls-2" width="24" height="24"/></g></g></g></svg>